<?xml version="1.0" encoding="UTF-8" standalone="no"?>
<!DOCTYPE svg PUBLIC "-//W3C//DTD SVG 1.1//EN" "http://www.w3.org/Graphics/SVG/1.1/DTD/svg11.dtd">
<!-- Created with Vectornator (http://vectornator.io/) -->
<svg height="100%" stroke-miterlimit="10" style="fill-rule:nonzero;clip-rule:evenodd;stroke-linecap:round;stroke-linejoin:round;" version="1.1" viewBox="0 0 186.947 57.5131" width="100%" xml:space="preserve" xmlns="http://www.w3.org/2000/svg" xmlns:vectornator="http://vectornator.io" xmlns:xlink="http://www.w3.org/1999/xlink">
<defs>
<linearGradient gradientTransform="matrix(0.423712 0.423712 -0.423712 0.423712 -130.601 -342.681)" gradientUnits="userSpaceOnUse" id="LinearGradient" x1="626.635" x2="575.069" y1="253.034" y2="197.853">
<stop offset="0" stop-color="#2bd4ff"/>
<stop offset="1" stop-color="#2309c0"/>
</linearGradient>
<radialGradient cx="595.047" cy="233.638" gradientTransform="matrix(0.423712 0.423712 -0.423712 0.423712 -141.233 -326.701)" gradientUnits="userSpaceOnUse" id="RadialGradient" r="49.3014">
<stop offset="0" stop-color="#ffb02f"/>
<stop offset="1" stop-color="#ff3e00"/>
</radialGradient>
<path d="M39.0538 18.0881C39.0538 18.0881 35.5234 15.3559 28.2094 22.7423L25.1601 25.8833L20.7428 25.5623L16.2186 30.0866L21.3466 31.6838L21.6064 35.5355L25.4505 35.7877L27.0478 40.9157L31.572 36.3915L31.251 31.9742L34.3997 28.9326C41.4605 21.8483 39.0538 18.0881 39.0538 18.0881Z" id="Fill"/>
</defs>
<g id="레이어-1" vectornator:layerName="레이어 1">
<g opacity="1">
<g opacity="1">
<path d="M13.3276 13.7063C21.6396 5.39433 35.116 5.39433 43.428 13.7063C51.74 22.0183 51.74 35.4948 43.428 43.8068C35.116 52.1188 21.6396 52.1188 13.3276 43.8068C5.01556 35.4948 5.01556 22.0183 13.3276 13.7063Z" fill="url(#LinearGradient)" fill-rule="nonzero" opacity="1" stroke="none"/>
<g opacity="1">
<clipPath id="ClipPath">
<path d="M13.3276 13.7063C21.6396 5.39433 35.116 5.39433 43.428 13.7063C51.74 22.0183 51.74 35.4948 43.428 43.8068C35.116 52.1188 21.6396 52.1188 13.3276 43.8068C5.01556 35.4948 5.01556 22.0183 13.3276 13.7063Z"/>
</clipPath>
<g clip-path="url(#ClipPath)">
<path d="M-26.6503 31.3783C-12.1787 16.9067 11.2844 16.9067 25.756 31.3783C40.2276 45.85 40.2276 69.3131 25.756 83.7847C11.2844 98.2563-12.1787 98.2563-26.6503 83.7847C-41.1219 69.3131-41.1219 45.85-26.6503 31.3783Z" fill="url(#RadialGradient)" fill-rule="nonzero" opacity="1" stroke="none"/>
</g>
</g>
<g opacity="1">
<use fill="#ffffff" fill-rule="nonzero" stroke="none" xlink:href="#Fill"/>
<mask height="28.3216" id="StrokeMask" maskUnits="userSpaceOnUse" width="28.2307" x="13.7186" y="15.0941">
<rect fill="#ffffff" height="28.3216" stroke="none" width="28.2307" x="13.7186" y="15.0941"/>
<use fill="#000000" fill-rule="evenodd" stroke="none" xlink:href="#Fill"/>
</mask>
<use fill="none" mask="url(#StrokeMask)" stroke="#000000" stroke-linecap="butt" stroke-linejoin="round" stroke-width="5" xlink:href="#Fill"/>
</g>
<path d="M25.1295 25.9139L20.7123 25.5929L16.188 30.1171L21.316 31.7144L25.1295 25.9139Z" fill="#ec5d53" fill-rule="nonzero" opacity="1" stroke="none"/>
<path d="M31.2205 32.0048L31.5414 36.422L27.0172 40.9463L25.4199 35.8183L31.2205 32.0048Z" fill="#ec5d53" fill-rule="nonzero" opacity="1" stroke="none"/>
<path d="M29.6072 24.3892C30.4737 23.5227 31.8786 23.5227 32.7451 24.3892C33.6116 25.2557 33.6116 26.6606 32.7451 27.5271C31.8786 28.3936 30.4737 28.3936 29.6072 27.5271C28.7407 26.6606 28.7407 25.2557 29.6072 24.3892Z" fill="#3c9aec" fill-rule="nonzero" opacity="1" stroke="none"/>
<path d="M39.0831 18.1174C39.0831 18.1174 37.1243 16.6071 33.1247 18.8589C33.6281 19.9505 34.3224 21.0099 35.2565 21.9441C36.168 22.8556 37.1857 23.5345 38.2489 24.0361C40.3531 20.1554 39.0832 18.1174 39.0831 18.1174Z" fill="#ec5d53" fill-rule="nonzero" opacity="1" stroke="none"/>
</g>
<path d="M64.526 18.1102C60.9578 18.1102 58.0472 20.9677 58.0471 24.519C58.0471 28.0704 60.9579 30.9278 64.526 30.9278L73.2813 30.9278C76.8494 30.9278 79.7599 28.0704 79.7601 24.519C79.7601 20.9676 76.8495 18.1101 73.2813 18.1102L64.526 18.1102ZM64.526 22.5929L73.2813 22.5929C74.3864 22.5929 75.2775 23.4562 75.2774 24.519C75.2774 25.5819 74.3865 26.445 73.2813 26.4452L64.526 26.4452C63.4209 26.4452 62.5297 25.5819 62.5298 24.519C62.5298 23.4562 63.4209 22.5929 64.526 22.5929ZM172.604 18.1102L172.604 35.0953L177.157 35.0953L177.157 26.8654L179.854 26.8654L179.854 22.4528L177.157 22.4528L177.157 19.2309L172.604 18.1102ZM161.818 18.3553L160.872 24.519L155.339 27.9511L156.74 31.8734L163.674 27.1106C163.67 27.1203 163.604 27.2156 163.604 27.2156L169.207 31.6633L171.939 28.4764L165.39 23.6085L166.196 19.2659L161.818 18.3553ZM108.691 18.3904L108.691 30.5426L129.249 30.5426L129.249 18.3904L124.801 18.3904L124.801 20.4566L113.139 20.4566L113.139 18.3904L108.691 18.3904ZM113.139 24.414L124.801 24.414L124.801 26.5152L113.139 26.5152L113.139 24.414ZM132.716 18.3904L132.716 26.9355L140.7 26.9355L140.7 28.2312L131.315 28.2312L131.315 31.6983L154.569 31.6983L154.569 28.2312L145.218 28.2312L145.218 26.9355L153.448 26.9355L153.448 23.4684L137.233 23.4684L137.233 21.8574L153.168 21.8574L153.168 18.3904L132.716 18.3904ZM82.8964 18.4254L82.8964 22.6629L91.5816 22.5578L91.5816 23.6085L82.8264 27.0055L84.5424 30.6127L93.928 27.1106L103.314 30.6127L105.03 27.0055L96.2744 23.6085L96.2744 22.5578L105.03 22.6629L105.03 18.4254L93.928 18.4604L82.8964 18.4254ZM57.2767 32.2586L57.2767 36.4612L66.5572 36.4612L66.5572 41.6443L71.25 40.5236L71.25 36.4612L80.5306 36.4612L80.5306 32.2586L57.2767 32.2586ZM82.301 32.2586L82.301 36.4612L91.6166 36.4612L91.6166 41.6443L96.2394 40.5236L96.2394 36.4612L105.52 36.4612L105.52 32.2586L82.301 32.2586ZM107.36 32.3287L107.36 36.4962L116.641 36.4962L116.641 41.6443L121.299 40.5236L121.299 36.4962L130.579 36.4962L130.579 32.3287L107.36 32.3287ZM136.813 32.3637C134.27 32.3637 132.19 34.4089 132.19 36.9514C132.19 39.494 134.271 41.5742 136.813 41.5742L149.07 41.5742C151.613 41.5742 153.693 39.4941 153.693 36.9514C153.693 34.4089 151.613 32.3637 149.07 32.3637L136.813 32.3637ZM136.813 36.6012L149.07 36.6012C149.261 36.6012 149.421 36.7609 149.421 36.9514C149.421 37.1421 149.261 37.3017 149.07 37.3017L136.813 37.3017C136.622 37.3017 136.463 37.1421 136.463 36.9514C136.463 36.7608 136.622 36.601 136.813 36.6012ZM156.88 33.0291L156.88 41.0839L177.472 41.0839L177.472 36.9865L161.503 36.9865L161.503 33.0291L156.88 33.0291Z" fill="#ffffff" fill-rule="nonzero" opacity="1" stroke="none"/>
</g>
</g>
</svg>
