<svg width="1991" height="52" viewBox="0 0 1991 52" fill="none" xmlns="http://www.w3.org/2000/svg">
<mask id="mask0_335_880" style="mask-type:alpha" maskUnits="userSpaceOnUse" x="8" y="3" width="1982" height="49">
<rect x="8" y="3" width="1982" height="49" fill="url(#paint0_linear_335_880)"/>
</mask>
<g mask="url(#mask0_335_880)">
<path d="M350 37.5L321.5 57.5H407L392.5 43L375 37.5L362 43L350 37.5Z" fill="url(#paint1_linear_335_880)"/>
<path d="M622 37.5L569.5 57.5L775 65.5L762.5 50L745.5 37.5L692.5 43L663 37.5H622Z" fill="url(#paint2_linear_335_880)"/>
<path d="M1066 38.5L987 62L1201 66L1146.5 38.5H1066Z" fill="url(#paint3_linear_335_880)"/>
<path d="M1473.5 34L1382.5 58L1625.5 63.5L1569.5 24H1552.5L1537 34L1526.5 30L1510.5 38.5L1473.5 34Z" fill="url(#paint4_linear_335_880)"/>
<path d="M1747 34L1687 58L1801 96L1991 66L1950.5 34L1908 24L1876 34L1832 63.5L1787 38.5L1747 34Z" fill="url(#paint5_linear_335_880)"/>
<path d="M38.8571 19.9157L0 57H272L230.416 30.2169H201.784L177.243 35.7108L156.792 42.5783L131.569 24.7229L97.4837 8.24096L71.5789 0L53.8546 15.1084L38.8571 19.9157Z" fill="url(#paint6_linear_335_880)"/>
</g>
<defs>
<linearGradient id="paint0_linear_335_880" x1="999" y1="3" x2="999" y2="52" gradientUnits="userSpaceOnUse">
<stop stop-color="#FF6214"/>
<stop offset="0.666667" stop-color="#FF9C40"/>
</linearGradient>
<linearGradient id="paint1_linear_335_880" x1="1129.25" y1="3" x2="1129.25" y2="96" gradientUnits="userSpaceOnUse">
<stop offset="0.0729167" stop-color="#9A4A25"/>
<stop offset="1" stop-color="#9A4A25" stop-opacity="0"/>
</linearGradient>
<linearGradient id="paint2_linear_335_880" x1="1129.25" y1="3" x2="1129.25" y2="96" gradientUnits="userSpaceOnUse">
<stop offset="0.0729167" stop-color="#9A4A25"/>
<stop offset="1" stop-color="#9A4A25" stop-opacity="0"/>
</linearGradient>
<linearGradient id="paint3_linear_335_880" x1="1129.25" y1="3" x2="1129.25" y2="96" gradientUnits="userSpaceOnUse">
<stop offset="0.0729167" stop-color="#9A4A25"/>
<stop offset="1" stop-color="#9A4A25" stop-opacity="0"/>
</linearGradient>
<linearGradient id="paint4_linear_335_880" x1="1129.25" y1="3" x2="1129.25" y2="96" gradientUnits="userSpaceOnUse">
<stop offset="0.0729167" stop-color="#9A4A25"/>
<stop offset="1" stop-color="#9A4A25" stop-opacity="0"/>
</linearGradient>
<linearGradient id="paint5_linear_335_880" x1="1129.25" y1="3" x2="1129.25" y2="96" gradientUnits="userSpaceOnUse">
<stop offset="0.0729167" stop-color="#9A4A25"/>
<stop offset="1" stop-color="#9A4A25" stop-opacity="0"/>
</linearGradient>
<linearGradient id="paint6_linear_335_880" x1="136" y1="0" x2="136" y2="57" gradientUnits="userSpaceOnUse">
<stop stop-color="#9A4A25"/>
<stop offset="1" stop-color="#9A4A25" stop-opacity="0"/>
</linearGradient>
</defs>
</svg>
